<?xml version="1.0" encoding="UTF-8"?>
<svg id="Layer_1" xmlns="http://www.w3.org/2000/svg" version="1.1" viewBox="0 0 841.89 595.28">
  <!-- Generator: Adobe Illustrator 29.6.0, SVG Export Plug-In . SVG Version: 2.1.1 Build 207)  -->
  <defs>
    <style>
      .st0 {
        font-family: Inter18pt-Bold, 'Inter 18pt';
        font-size: 41.43px;
        font-weight: 700;
        letter-spacing: 0em;
      }

      .st0, .st1 {
        fill: #414042;
      }
    </style>
  </defs>
  <text class="st0" transform="translate(436.4 251.02)"><tspan x="0" y="0">ten</tspan><tspan x="0" y="46.67">minutes </tspan><tspan x="0" y="93.34">legal</tspan></text>
  <g>
    <path class="st1" d="M358.78,285.64c9.24,5.61,19.76,13.34,23.38,23.04,2.27,6.08,2.26,13.19,2.3,19.56h-75.99v-11.15c0-19.59,29.41-33.28,44.69-43.69,9.13-6.22,20.34-13.55,19.99-24.87h-53.9c.42,13.32,13.44,20.21,24.24,27.28l-9.43,5.84c-9.54-6.41-19.62-12.85-23.45-23.39-.71-1.94-2.15-6.72-2.15-8.55v-10.67h75.99c-.08,5.68-.04,12.14-1.77,17.65-5.16,16.38-28.42,26.94-42.91,36.71-8.8,5.93-20.44,13.8-20.55,24.63,0,1.01-.03.61.81.72,10.1,1.34,22.62-9.95,26.43-17.55,1.46,2.51,2.55,4.64,4.6,6.86,4.98,5.4,13.77,11.56,22.08,10.69.41-12.56-12.99-20.99-23.71-27.05"/>
    <rect class="st1" x="308.47" y="222.61" width="75.99" height="10.91"/>
    <rect class="st1" x="308.47" y="333.77" width="75.99" height="10.91"/>
  </g>
  <circle class="st1" cx="346.46" cy="261.94" r="5.37"/>
  <rect class="st1" x="411.01" y="199.77" width=".82" height="167.76"/>
  <path class="st1" d="M395.2,339.2c0,.5-.09.97-.28,1.41-.19.44-.44.82-.77,1.14-.33.32-.71.58-1.15.76-.44.19-.91.28-1.42.28s-1-.09-1.44-.27c-.44-.18-.82-.43-1.13-.75-.32-.32-.56-.69-.74-1.13-.18-.44-.27-.91-.27-1.44s.09-.97.28-1.41c.19-.44.44-.81.77-1.14.33-.32.71-.58,1.15-.76.44-.18.91-.28,1.42-.28s1,.09,1.44.27c.44.18.82.43,1.13.74.32.32.56.69.74,1.13.18.44.27.91.27,1.43ZM394.38,339.26c0-.44-.07-.83-.21-1.19s-.33-.66-.58-.92-.54-.45-.87-.58-.7-.2-1.1-.2c-.42,0-.81.07-1.15.22-.34.15-.63.35-.88.61-.25.26-.43.56-.57.9-.13.34-.2.7-.2,1.09,0,.43.07.82.21,1.18s.33.66.58.92.54.45.87.59.7.21,1.1.21c.42,0,.81-.07,1.15-.23s.64-.35.88-.61.43-.55.56-.89c.13-.34.2-.7.2-1.09ZM393.29,340.95s0,.05-.01.07c0,.02-.03.04-.07.05s-.09.02-.16.02c-.07,0-.16,0-.28,0-.1,0-.19,0-.25,0-.06,0-.12-.02-.16-.03-.04-.02-.07-.04-.09-.06-.02-.03-.04-.07-.05-.12l-.19-.64c-.07-.23-.16-.39-.26-.47-.1-.09-.25-.13-.46-.13h-.25v1.29c0,.07-.03.11-.08.14-.05.02-.17.04-.36.04s-.32-.01-.38-.04c-.06-.02-.09-.07-.09-.14v-3.31c0-.13.03-.24.1-.32.07-.08.17-.12.3-.12h1.06c.25,0,.46.02.65.06.19.04.35.11.48.2.13.09.23.21.3.35.07.14.1.3.1.49,0,.29-.08.52-.24.69-.16.16-.37.28-.64.35.15.05.29.13.41.25.13.12.24.29.33.52l.22.59c.04.14.06.23.06.27ZM392.15,338.39c0-.07,0-.13-.03-.19-.02-.06-.05-.12-.11-.16-.05-.05-.12-.08-.21-.11-.09-.02-.19-.04-.32-.04h-.42v1.03h.41c.26,0,.44-.05.53-.15.1-.1.15-.23.15-.39Z"/>
</svg>