<svg xmlns="http://www.w3.org/2000/svg" viewBox="0 0 92.82 55.8"><defs><style>.cls-1{font-size:13.78px;font-family:Inter18pt-Bold, Inter18pt Bold;font-weight:700;}.cls-1,.cls-4{fill:#fff;}.cls-1,.cls-3{letter-spacing:0em;}.cls-2{letter-spacing:0em;}</style></defs><title>Asset white</title><g id="Layer_2" data-name="Layer 2"><g id="Layer_1-2" data-name="Layer 1"><text class="cls-1" transform="translate(42.55 17.05)">t<tspan class="cls-2" x="4.55" y="0">en</tspan><tspan class="cls-2"><tspan x="0" y="15.52">minu</tspan><tspan class="cls-3" x="30.23" y="15.52">t</tspan><tspan x="34.78" y="15.52">es </tspan><tspan x="0" y="31.05">legal</tspan></tspan></text><path class="cls-4" d="M16.73,28.56c3.08,1.87,6.58,4.44,7.78,7.67a19.27,19.27,0,0,1,.77,6.5H0V39C0,32.51,9.78,28,14.86,24.49c3-2.07,6.77-4.51,6.65-8.27H3.59c.14,4.43,4.47,6.72,8.06,9.07L8.51,27.24C5.34,25.11,2,23,.71,19.46A13.57,13.57,0,0,1,0,16.62V13.07H25.28a21.53,21.53,0,0,1-.59,5.87c-1.72,5.45-9.46,9-14.28,12.21-2.92,2-6.8,4.59-6.83,8.19,0,.33,0,.2.27.24,3.36.44,7.52-3.31,8.79-5.84A11.66,11.66,0,0,0,14.17,36c1.65,1.8,4.58,3.84,7.34,3.56.14-4.18-4.32-7-7.88-9"/><rect class="cls-4" y="7.6" width="25.28" height="3.63"/><rect class="cls-4" y="44.57" width="25.28" height="3.63"/><circle class="cls-4" cx="12.64" cy="20.68" r="1.79"/><rect class="cls-4" x="34.11" width="0.27" height="55.8"/><path class="cls-4" d="M28.85,46.38a1.23,1.23,0,0,1-.09.47,1.28,1.28,0,0,1-.26.38,1.19,1.19,0,0,1-.38.25,1.1,1.1,0,0,1-.47.1,1.21,1.21,0,0,1-.48-.09,1.14,1.14,0,0,1-.38-.25,1.09,1.09,0,0,1-.25-.38,1.21,1.21,0,0,1-.09-.48,1,1,0,0,1,.1-.46,1.09,1.09,0,0,1,.25-.38,1.19,1.19,0,0,1,.38-.25,1.12,1.12,0,0,1,.48-.1,1.28,1.28,0,0,1,.48.09,1.17,1.17,0,0,1,.62.62A1.28,1.28,0,0,1,28.85,46.38Zm-.28,0a1,1,0,0,0-.07-.4.77.77,0,0,0-.19-.3.84.84,0,0,0-.29-.2,1,1,0,0,0-.36-.06.92.92,0,0,0-.38.07,1,1,0,0,0-.3.2.92.92,0,0,0-.18.3.86.86,0,0,0-.07.36.94.94,0,0,0,.07.39.89.89,0,0,0,.19.31,1,1,0,0,0,.29.2,1.06,1.06,0,0,0,.37.06,1,1,0,0,0,.38-.07,1,1,0,0,0,.29-.2,1.17,1.17,0,0,0,.19-.3A1,1,0,0,0,28.57,46.4Zm-.36.56v0l0,0H27.9l0,0s0,0,0,0l-.07-.21a.31.31,0,0,0-.09-.16.21.21,0,0,0-.15,0h-.08V47s0,0,0,0a.22.22,0,0,1-.12,0l-.12,0s0,0,0,0v-1.1a.18.18,0,0,1,0-.11.15.15,0,0,1,.1,0h.35a.69.69,0,0,1,.22,0,.38.38,0,0,1,.16.06.29.29,0,0,1,.1.12.38.38,0,0,1,0,.16.28.28,0,0,1-.08.23.53.53,0,0,1-.21.12.34.34,0,0,1,.14.08.56.56,0,0,1,.11.17l.07.2Zm-.38-.85a.2.2,0,0,0,0-.07s0,0,0,0a.15.15,0,0,0-.07,0l-.11,0h-.14v.35h.14a.25.25,0,0,0,.17,0A.15.15,0,0,0,27.83,46.11Z"/></g></g></svg>